<?xml version="1.0" encoding="UTF-8"?>
<svg id="Capa_1" xmlns="http://www.w3.org/2000/svg" version="1.1" xmlns:xlink="http://www.w3.org/1999/xlink" viewBox="0 0 126.7 136.2">
  <!-- Generator: Adobe Illustrator 29.3.1, SVG Export Plug-In . SVG Version: 2.1.0 Build 151)  -->
  <defs>
    <style>
      .st0 {
        fill: #6a9e2f;
      }

      .st1 {
        display: none;
      }

      .st2 {
        fill: #f03;
      }
    </style>
  </defs>
  <g id="Capa_11" data-name="Capa_1" class="st1">
    <g>
      <path class="st0" d="M149.8,213.2s0,0,0,0c-.1-.3-3-6.8,3.1-10.6,6.2-3.8,23-10.6,23.5-51.4,0,0-27.1,30.2-53.5,28.1,0,0-18-3.6-16.1-24.7,0,0,1-5.5,1.9-7.9s2.1-8.4-2.1-17,10.7-38.2,51.3-11.3c0,0-16.8-19.9-13.2-40.6s24.5-15.6,27.4-14.2,6.2,4.8,13.4,1.9c7.2-2.9,25.7-7.9,31.4,12.7s-13.4,38.6-13.4,38.6c0,0,13.2-10.3,28.3-12.5s24.2,12.7,23.3,23.3-2.6,11.5-2.9,14.2,1.3,7.2,2.9,10.1,3.8,27.8-24.8,27.4c0,0-20.9-1.7-44.6-29,0,0,2.9,34.8-23,69.8,0,0-4.8,3.6-8.9,0-3.9-3.5-4.1-6.7-4.1-6.9Z"/>
      <path class="st0" d="M104.9,246l6.1-6.1s-6.8-9.6-20.9-9.6-25.7,10.2-25.7,24.6,9,24.4,25.4,24.4,24.8-9.4,24.8-25.4h-20.8v7.6h10.4s-1.3,9.4-14.8,9.4-16.4-11.5-16.4-16,3.2-15.5,16.4-15.5,15.3,6.7,15.3,6.7Z"/>
      <polygon class="st0" points="119.4 232 119.4 277.9 145.7 277.9 145.7 269.8 127.6 269.8 127.6 257.4 145.7 257.4 145.7 249.3 127.7 249.3 127.7 240.7 145.7 240.7 145.7 232 119.4 232"/>
      <path class="st0" d="M148.1,265.3l7.7-2.2s3.8,7.1,9.1,7.1,6.4-2.5,6.6-4.3c.4-3.5-1.1-6.1-14.3-11.8,0,0-6.5-3.4-6.5-11.9s9.1-12,13.9-12,12.7,2.5,15,7.3l-5.2,4.9s-12.2-9.2-14.2-.3c0,0-.5,5.3,6.8,7,9,2.1,13.2,11,13.2,17.3s-5,12.8-15.2,12.8-14.9-8.4-16.9-13.9Z"/>
      <polygon class="st0" points="182.9 231.3 182.9 240.1 193 240.1 193 277.9 201.6 277.9 201.6 240.4 211.1 240.4 211.1 231.3 182.9 231.3"/>
      <path class="st0" d="M237.5,270.3c-9.2,0-16.7-6.9-16.7-15.5s7.5-15.5,16.7-15.5,16.7,6.9,16.7,15.5-7.5,15.5-16.7,15.5ZM262,254.8c0-13.5-11-24.5-24.5-24.5s-24.5,11-24.5,24.5,11,24.5,24.5,24.5,24.5-11,24.5-24.5Z"/>
      <path class="st0" d="M268.9,277.9v-46.7h16s11.6.5,11.6,14.3-11,13.4-11,13.4l13.1,19h-10.6l-10.9-16.4v16.4h-8.2ZM276.6,253.1s11.5-1.9,11.5-7.7-11.5-6.1-11.5-6.1v13.2"/>
      <path class="st0" d="M233,302.7l6.7-16.6-4.9.6.5-1.6,7-1.5s1.5-.7,1,1.4-1,3-1,3l4-2.9s4.9-2.9,5.2,0,0,3.9,0,3.9l5.8-4.8s2.5-2.2,3.6.6c1.1,2.8-3.1,13.4-3.1,13.4,0,0-.7,3.6,1.8.6,1.9-2.2,7.2-16.3,13.2-15.8,0,0,1.7,0,2.7,1.8,1,1.7,2.2.6,2.8-.2s2.1-1.9,3.1-.3c1,1.6,1.2,1.3,2.3.3,1.1-1,2.1-2.6,3.3-.6,1.2,2,1.8,4.2,1.8,4.2,0,0,.3,0,1.6-1.2s4.5-4.1,4.5-4.1c0,0,2.2-.5,2.9,1.4.6,1.9,1.1,3.1-4.5,4.1,0,0-2.7,2.2-2.7,3.4s.7,7.9,1.5,7.8c.8,0,3-2.4,3-2.4,0,0,2.3-1,1.9,1.4s-5.7,5.9-5.7,5.9c0,0-1.8.4-2.6-1.3-.8-1.6-1.5-5.5-1.5-5.5h0s-5.7,6.8-6.8,6.8c-1.5,0-3.3-1.9-3.3-1.9,0,0-.9,2-2.2,1.9s-3.3-1.2-2.5-4.6c0,0-4.3,4.6-7.6,4.6s-3.3-4.2-3.3-4.2c0,0-2.5,3.7-5.9,3.7s.9-13.8.9-13.8c0,0,1.4-4-1.6-.8s-7.5,15.1-7.5,15.1h-4.1l4.9-13s1.9-8.7-5.9,0c-2,2.2-6.1,12.7-6.1,12.7h-3.8l.5-1.3ZM270.4,298.6c1.9-1,4.5-7.2,4.5-10s-2-3.1-3.9-2c-1.9,1.1-4.9,7.7-5.1,10.4-.3,2.6,1.4,2.6,1.4,2.6,0,0,1.3,0,3.1-1ZM286.1,292.8c-.6-8.8-5.7-5.8-5.7-5.8l-3.3,12.6s1.8-1.4,3-1.9,1.2,1.9,1.2,1.9c3.1-1.2,4.9-6.8,4.9-6.8Z"/>
    </g>
  </g>
  <path class="st2" d="M45.5,49.1s-16.7-18.5-11.7-38.8c0,0,4.2-10.8,17.2-10.3,0,0,3.5.4,8.5,3.4,0,0,2.5,1.3,7.9-.5,0,0,4.3-3.3,11.9-2.6,0,0,10.7.8,14.2,11.4,0,0,4.6,19.8-12.9,37.3,0,0,15-12.7,28.9-12.4,0,0,16.8.8,17,20.8,0,0-.3,4.3-1.8,6.8,0,0-1.8,5.3.2,9.4,0,0,2.8,3.6,1.5,9.1,0,0,1,13.2-16.2,16.5,0,0-18.9,3.2-42.9-24.9,0,0,2.3,30.2-18.8,59.1,0,0-3,5.8-8.9,0,0,0-6.8-9.6,1.3-13.7,0,0,20.6-10.7,18.8-44.1l-14.8,12.9s-13.9,11.2-29.4,10.9c0,0-17-2.3-14.7-20.6,0,0,2-7.8,2-11.1,0,0-.2-6.1-2.2-9.9,0,0-5.1-13.7,15.2-19,0,0,10.9-3.3,29.7,10.1Z"/>
</svg>